<svg xmlns="http://www.w3.org/2000/svg" viewBox="0 0 96 64" role="img" aria-label="Magertron">
  <title>Magertron</title>
  <rect width="96" height="64" rx="8" fill="#06080c"/>
  <path d="M 1.25 10.5 L 1.25 56.64 L 35.71 33.57 Z" fill="#60a5fa"/>
  <path d="M 85.25 45.81 L 71.06 45.75 L 71.06 43.38 L 71.25 43.19 L 73.94 43.12 L 73.81 28.0 L 73.31 26.25 L 72.5 25.44 L 71.25 25.06 L 70.12 25.06 L 69.12 25.31 L 68.25 25.81 L 67.44 26.62 L 66.56 28.38 L 66.19 30.5 L 66.19 43.12 L 69.0 43.19 L 69.0 45.81 L 55.44 45.75 L 55.5 43.19 L 58.31 43.12 L 58.19 28.0 L 57.56 26.12 L 57.0 25.56 L 55.62 25.06 L 53.88 25.19 L 52.75 25.69 L 51.69 26.75 L 51.19 27.62 L 50.56 30.12 L 50.56 43.12 L 53.38 43.19 L 53.44 45.75 L 39.38 45.81 L 39.38 43.19 L 42.69 43.12 L 42.69 24.75 L 39.38 24.69 L 39.31 22.12 L 50.5 22.06 L 50.56 25.25 L 50.75 25.31 L 52.25 23.44 L 53.62 22.44 L 55.0 21.81 L 56.75 21.44 L 60.38 21.56 L 62.0 22.06 L 63.12 22.69 L 64.56 24.12 L 65.62 25.94 L 68.12 23.19 L 69.75 22.19 L 71.12 21.69 L 72.38 21.44 L 75.12 21.44 L 76.5 21.69 L 78.12 22.31 L 79.62 23.44 L 80.69 24.88 L 81.69 27.88 L 81.81 43.12 L 85.25 43.19 L 85.25 45.81 Z" fill="#e8ecf4" fill-rule="evenodd"/>
</svg>
